HIERARCHY
ROOT Hips
{
	OFFSET 0.000000 0.000000 0.000000
	CHANNELS 6 Xposition Yposition Zposition Zrotation Yrotation Xrotation 
	JOINT LHipJoint
	{
		OFFSET 0.000000 0.000000 0.000000
		CHANNELS 3 Zrotation Yrotation Xrotation
		JOINT LeftUpLeg
		{
			OFFSET 1.363060 -1.794630 0.839290
			CHANNELS 3 Zrotation Yrotation Xrotation
			JOINT LeftLeg
			{
				OFFSET 2.448110 -6.726130 0.000000
				CHANNELS 3 Zrotation Yrotation Xrotation
				JOINT LeftFoot
				{
					OFFSET 2.562200 -7.039590 0.000000
					CHANNELS 3 Zrotation Yrotation Xrotation
					JOINT LeftToeBase
					{
						OFFSET 0.157640 -0.433110 2.322550
						CHANNELS 3 Zrotation Yrotation Xrotation
						End Site
						{
							OFFSET 0.000000 0.000000 0.000000
						}
					}
				}
			}
		}
	}
	JOINT RHipJoint
	{
		OFFSET 0.000000 0.000000 0.000000
		CHANNELS 3 Zrotation Yrotation Xrotation
		JOINT RightUpLeg
		{
			OFFSET -1.305520 -1.794630 0.839290
			CHANNELS 3 Zrotation Yrotation Xrotation
			JOINT RightLeg
			{
				OFFSET -2.542530 -6.985550 0.000000
				CHANNELS 3 Zrotation Yrotation Xrotation
				JOINT RightFoot
				{
					OFFSET -2.568260 -7.056230 0.000000
					CHANNELS 3 Zrotation Yrotation Xrotation
					JOINT RightToeBase
					{
						OFFSET -0.164730 -0.452590 2.363150
						CHANNELS 3 Zrotation Yrotation Xrotation
						End Site
						{
							OFFSET 0.000000 0.000000 0.000000
						}
					}
				}
			}
		}
	}
	JOINT LowerBack
	{
		OFFSET 0.000000 0.000000 0.000000
		CHANNELS 3 Zrotation Yrotation Xrotation
		JOINT Spine
		{
			OFFSET 0.028270 2.035590 -0.193380
			CHANNELS 3 Zrotation Yrotation Xrotation
			JOINT Spine1
			{
				OFFSET 0.056720 2.048850 -0.042750
				CHANNELS 3 Zrotation Yrotation Xrotation
				JOINT Neck
				{
					OFFSET 0.000000 0.000000 0.000000
					CHANNELS 3 Zrotation Yrotation Xrotation
					JOINT Neck1
					{
						OFFSET -0.054170 1.746240 0.172020
						CHANNELS 3 Zrotation Yrotation Xrotation
						JOINT Head
						{
							OFFSET 0.104070 1.761360 -0.123970
							CHANNELS 3 Zrotation Yrotation Xrotation
							End Site
							{
								OFFSET 0.000000 0.000000 0.000000
							}
						}
					}
				}
				JOINT LeftShoulder
				{
					OFFSET 0.000000 0.000000 0.000000
					CHANNELS 3 Zrotation Yrotation Xrotation
					JOINT LeftArm
					{
						OFFSET 3.362410 1.200890 -0.311210
						CHANNELS 3 Zrotation Yrotation Xrotation
						JOINT LeftForeArm
						{
							OFFSET 4.983000 -0.000000 -0.000000
							CHANNELS 3 Zrotation Yrotation Xrotation
							JOINT LeftHand
							{
								OFFSET 3.483560 -0.000000 -0.000000
								CHANNELS 3 Zrotation Yrotation Xrotation
								JOINT LeftFingerBase
								{
									OFFSET 0.000000 0.000000 0.000000
									CHANNELS 3 Zrotation Yrotation Xrotation
									JOINT LeftHandIndex1
									{
										OFFSET 0.715260 -0.000000 -0.000000
										CHANNELS 3 Zrotation Yrotation Xrotation
										End Site
										{
											OFFSET 0.000000 0.000000 0.000000
										}
									}
								}
								JOINT LThumb
								{
									OFFSET 0.000000 0.000000 0.000000
									CHANNELS 3 Zrotation Yrotation Xrotation
									End Site
									{
										OFFSET 0.000000 0.000000 0.000000
									}
								}
							}
						}
					}
				}
				JOINT RightShoulder
				{
					OFFSET 0.000000 0.000000 0.000000
					CHANNELS 3 Zrotation Yrotation Xrotation
					JOINT RightArm
					{
						OFFSET -3.136600 1.374050 -0.404650
						CHANNELS 3 Zrotation Yrotation Xrotation
						JOINT RightForeArm
						{
							OFFSET -5.241900 -0.000000 -0.000000
							CHANNELS 3 Zrotation Yrotation Xrotation
							JOINT RightHand
							{
								OFFSET -3.444170 -0.000000 -0.000000
								CHANNELS 3 Zrotation Yrotation Xrotation
								JOINT RightFingerBase
								{
									OFFSET 0.000000 0.000000 0.000000
									CHANNELS 3 Zrotation Yrotation Xrotation
									JOINT RightHandIndex1
									{
										OFFSET -0.622530 -0.000000 -0.000000
										CHANNELS 3 Zrotation Yrotation Xrotation
										End Site
										{
											OFFSET 0.000000 0.000000 0.000000
										}
									}
								}
								JOINT RThumb
								{
									OFFSET 0.000000 0.000000 0.000000
									CHANNELS 3 Zrotation Yrotation Xrotation
									End Site
									{
										OFFSET 0.000000 0.000000 0.000000
									}
								}
							}
						}
					}
				}
			}
		}
	}
}
MOTION
Frames: 12
Frame Time: 0.008333
8.374812 24.364558 0.236349 175.724518 82.973159 -178.155896 -4.931956 -0.035440 0.943368 -0.593216 -14.547591 -14.449196 -3.573864 5.718253 17.080229 6.574973 -5.054176 43.284613 0.614500 -5.017000 -13.957000 4.599210 -2.158295 2.908001 10.039765 10.415040 -5.702689 2.116095 -6.385788 17.103325 0.231831 -13.581669 33.463443 -0.000000 0.044400 -0.122100 0.101401 0.124345 15.646241 3.164215 0.274053 1.416942 2.633427 0.737805 -6.891513 3.036649 -1.119804 -5.348632 -7.301291 -2.608399 -8.729170 -4.294400 -1.459200 -2.861100 -1.853929 -6.148705 1.381365 -53.060158 0.228688 23.856233 36.784062 -43.303338 -20.138560 0.942826 -1.845572 10.960785 1.922995 -3.064175 -0.016100 -7.125000 0.000000 0.000000 -19.814900 28.279600 8.539700 2.597896 6.459166 2.377352 62.165623 -15.320162 19.859730 -22.531461 30.946194 -7.549656 0.993720 -0.019281 5.665592 -15.782737 -16.610099 4.923900 7.125000 0.000000 0.000000 10.526000 -47.004700 -0.526400 
8.426877 24.499659 0.244787 177.347569 82.967336 -176.959042 -4.876437 -0.015143 0.957301 -0.497238 -14.498385 -14.417916 -3.582863 5.691240 17.028719 6.566664 -5.353994 42.443981 0.672400 -5.243700 -14.605100 4.564928 -2.190161 2.936923 10.151976 10.472385 -5.440095 2.213142 -6.188373 16.636719 0.462428 -13.590625 32.317886 -0.003200 0.362600 -0.996200 0.374885 0.154539 16.146595 3.234376 0.400521 1.582647 2.522054 0.800039 -6.967664 3.045889 -1.108830 -5.265914 -7.203626 -2.588711 -8.598201 -4.270200 -1.453700 -2.832700 -1.852903 -6.162812 1.374090 -53.360726 0.057995 25.010433 36.655410 -43.244330 -19.955184 0.948311 -1.843213 11.080140 1.685904 -3.023247 -0.009800 -7.125000 0.000000 0.000000 -20.002000 28.306300 8.616700 2.605347 6.478632 2.391550 62.030670 -14.971884 20.175416 -22.685777 31.072467 -7.606741 0.971809 -0.020135 5.429262 -15.642252 -16.186447 4.752800 7.125000 0.000000 0.000000 10.554600 -46.550900 -0.408400 
8.481205 24.621486 0.252504 178.418083 82.988854 -176.280470 -4.829968 -0.001334 0.970062 -0.467442 -14.385025 -14.411922 -3.593363 5.667371 16.982667 6.566011 -5.637922 41.701769 0.721100 -5.426200 -15.128100 4.535751 -2.218064 2.958519 10.166588 10.490818 -5.264355 2.287244 -6.018365 16.214655 0.682889 -13.695301 31.320447 -0.011400 0.688400 -1.891700 0.578455 0.199189 16.606579 3.280452 0.529219 1.750216 2.415609 0.865616 -7.014228 3.091330 -1.094819 -5.160420 -7.094593 -2.573034 -8.549966 -4.248100 -1.451600 -2.832500 -1.845345 -6.172504 1.369176 -53.685982 -0.020863 26.072783 36.737566 -43.309888 -19.950321 0.951107 -1.843716 11.148227 1.514652 -2.922738 -0.005100 -7.125000 0.000000 0.000000 -20.149900 28.394800 8.643000 2.606833 6.490266 2.403097 61.929292 -14.683581 20.549854 -22.918300 31.273365 -7.704329 0.946329 -0.029056 5.151618 -15.636758 -15.680648 4.596500 7.125000 0.000000 0.000000 10.438500 -46.021600 -0.266100 
8.536871 24.730143 0.259706 179.081740 83.038443 -175.953943 -4.789640 -0.001029 0.979391 -0.476389 -14.232100 -14.445081 -3.609449 5.641388 16.941377 6.587141 -5.968490 41.078650 0.762800 -5.577400 -15.563200 4.512989 -2.232320 2.968028 10.099752 10.455892 -5.208601 2.337183 -5.886574 15.874255 0.875328 -13.844565 30.518372 -0.025400 1.028600 -2.827600 0.722244 0.253715 17.015457 3.309251 0.654945 1.913191 2.318727 0.931336 -7.033435 3.177910 -1.083551 -5.066568 -6.997668 -2.565643 -8.556888 -4.236300 -1.455100 -2.848000 -1.832068 -6.176736 1.365281 -54.041313 -0.014409 27.012302 36.981045 -43.470517 -20.082540 0.950973 -1.844418 11.146868 1.449282 -2.801667 -0.003300 -7.125000 0.000000 0.000000 -20.220700 28.507500 8.619200 2.603491 6.496240 2.412613 61.856047 -14.440181 20.965481 -23.218826 31.538716 -7.840076 0.920292 -0.044264 4.820011 -15.768661 -15.144354 4.468300 7.125000 0.000000 0.000000 10.191300 -45.469800 -0.119400 
8.593258 24.826864 0.266806 179.419129 83.113157 -175.884969 -4.754835 -0.018505 0.981672 -0.504116 -14.073760 -14.523903 -3.632606 5.611208 16.904739 6.634885 -6.370695 40.585470 0.795700 -5.693600 -15.898000 4.497605 -2.227652 2.962266 9.959020 10.375533 -5.289679 2.363346 -5.798369 15.633919 1.033936 -14.006779 29.915132 -0.043600 1.347500 -3.705600 0.817079 0.319534 17.363991 3.322599 0.780498 2.065134 2.227728 0.998218 -7.027258 3.280597 -1.073106 -4.965930 -6.887753 -2.565139 -8.636178 -4.222700 -1.463300 -2.886000 -1.814002 -6.178047 1.362462 -54.413046 0.070109 27.836761 37.358651 -43.708275 -20.329842 0.948234 -1.844484 11.046055 1.500402 -2.678213 -0.004000 -7.125000 0.000000 0.000000 -20.202700 28.627600 8.548700 2.595386 6.495359 2.419116 61.817760 -14.241770 21.392449 -23.581395 31.861843 -8.013562 0.896565 -0.064342 4.437368 -16.039288 -14.630555 4.380600 7.125000 0.000000 0.000000 9.826200 -44.949700 0.012300 
8.649644 24.911753 0.274112 179.535955 83.213778 -175.956138 -4.722589 -0.055905 0.973510 -0.532487 -13.934509 -14.652954 -3.661493 5.579142 16.880680 6.708541 -6.859148 40.196489 0.823100 -5.788600 -16.172300 4.489457 -2.201005 2.940335 9.761335 10.261203 -5.507070 2.370071 -5.751234 15.495078 1.150215 -14.138516 29.501249 -0.064700 1.641200 -4.514900 0.871914 0.395536 17.645510 3.324176 0.905151 2.200868 2.142951 1.065493 -6.998301 3.391594 -1.064715 -4.858127 -6.764260 -2.571932 -8.778872 -4.205500 -1.476100 -2.943800 -1.792434 -6.177210 1.360179 -54.794997 0.223848 28.545566 37.829860 -43.997499 -20.659837 0.943257 -1.843139 10.841274 1.669190 -2.566421 -0.006400 -7.125000 0.000000 0.000000 -20.091600 28.741500 8.437600 2.583397 6.488186 2.422836 61.809313 -14.083782 21.831011 -23.996217 32.233400 -8.222022 0.877736 -0.087376 3.999159 -16.442961 -14.183966 4.343100 7.125000 0.000000 0.000000 9.358700 -44.507100 0.114900 
8.705001 24.984705 0.281932 179.543892 83.332088 -176.049552 -4.691482 -0.115160 0.951507 -0.542312 -13.835237 -14.836812 -3.694500 5.545758 16.868452 6.804852 -7.427355 39.898901 0.844900 -5.862900 -16.387300 4.487044 -2.149072 2.902344 9.526885 10.108433 -5.862446 2.362211 -5.740491 15.454315 1.212523 -14.189887 29.266973 -0.088700 1.921200 -5.287900 0.901948 0.476782 17.862310 3.317971 1.025920 2.314480 2.062724 1.130932 -6.954896 3.500866 -1.058852 -4.751012 -6.627445 -2.584544 -8.969657 -4.183200 -1.492700 -3.015500 -1.768473 -6.174449 1.358080 -55.175513 0.441975 29.153238 38.366185 -44.320003 -21.050070 0.936668 -1.839909 10.532272 1.955674 -2.490455 -0.010400 -7.125000 0.000000 0.000000 -19.883000 28.825800 8.296600 2.568538 6.475539 2.423942 61.826194 -13.955575 22.267363 -24.446859 32.636844 -8.457513 0.864680 -0.112492 3.515330 -16.968394 -13.816703 4.355200 7.125000 0.000000 0.000000 8.800300 -44.153800 0.185300 
8.759227 25.045413 0.290472 179.486305 83.466010 -176.122162 -4.660519 -0.194598 0.914290 -0.526481 -13.789271 -15.070744 -3.728811 5.513212 16.868791 6.915496 -8.053677 39.663365 0.860600 -5.915800 -16.540200 4.488161 -2.072485 2.849487 9.270541 9.928543 -6.339716 2.344203 -5.760239 15.502555 1.216388 -14.130129 29.187103 -0.115900 2.194500 -6.043400 0.910957 0.560954 18.014993 3.304955 1.140829 2.404321 1.986542 1.193061 -6.899930 3.600326 -1.053452 -4.640575 -6.473180 -2.598835 -9.196746 -4.153200 -1.510800 -3.097900 -1.743257 -6.170752 1.355789 -55.551053 0.713426 29.658115 38.929937 -44.653234 -21.470316 0.929012 -1.834951 10.147470 2.334356 -2.451077 -0.015500 -7.125000 0.000000 0.000000 -19.595800 28.878300 8.136500 2.551388 6.458247 2.422674 61.867522 -13.850351 22.695349 -24.921793 33.060457 -8.714338 0.857829 -0.137640 2.991581 -17.582475 -13.543643 4.414000 7.125000 0.000000 0.000000 8.182500 -43.903700 0.223000 
8.811909 25.094391 0.299835 179.308959 83.612883 -176.235581 -4.630415 -0.290489 0.862541 -0.492856 -13.801900 -15.344618 -3.762442 5.482494 16.878760 7.030172 -8.709874 39.452732 0.871800 -5.953200 -16.648700 4.490992 -1.973977 2.782064 8.991950 9.743001 -6.920798 2.317883 -5.806875 15.630663 1.168760 -13.964589 29.230156 -0.145300 2.456500 -6.769000 0.895273 0.646243 18.110768 3.281903 1.246652 2.467788 1.914931 1.250137 -6.840703 3.694464 -1.044849 -4.528786 -6.314041 -2.608085 -9.439380 -4.120500 -1.526800 -3.184600 -1.718214 -6.165591 1.353235 -55.907308 1.034896 30.079528 39.495813 -44.983455 -21.901116 0.920961 -1.828962 9.712024 2.773879 -2.449937 -0.021800 -7.125000 0.000000 0.000000 -19.254100 28.896200 7.969700 2.532857 6.437880 2.419633 61.929048 -13.755416 23.115028 -25.392537 33.477976 -8.975434 0.856612 -0.161669 2.450371 -18.246535 -13.358250 4.510000 7.125000 0.000000 0.000000 7.537300 -43.748200 0.234300 
8.863356 25.132050 0.309816 178.973036 83.769431 -176.438635 -4.602609 -0.398087 0.797676 -0.446800 -13.877320 -15.644376 -3.792651 5.453794 16.890574 7.136919 -9.349408 39.237566 0.879000 -5.977100 -16.718000 4.492715 -1.856268 2.701438 8.695562 9.561669 -7.587797 2.285489 -5.876869 15.831529 1.068622 -13.681552 29.380175 -0.178100 2.718200 -7.495300 0.852123 0.727802 18.153455 3.249856 1.337506 2.508262 1.852251 1.299270 -6.775827 3.775154 -1.029525 -4.426213 -6.153441 -2.605481 -9.676769 -4.085300 -1.537000 -3.267300 -1.693955 -6.159298 1.349814 -56.251007 1.394915 30.410903 40.034054 -45.294645 -22.317719 0.912712 -1.822296 9.265083 3.242154 -2.472277 -0.029300 -7.125000 0.000000 0.000000 -18.885500 28.891700 7.802600 2.513759 6.415642 2.415354 62.005661 -13.656767 23.517698 -25.842239 33.873447 -9.229995 0.859280 -0.184638 1.921207 -18.932432 -13.234629 4.629800 7.125000 0.000000 0.000000 6.883800 -43.659100 0.229000 
8.913569 25.158083 0.320517 178.368353 83.933136 -176.853971 -4.579420 -0.512659 0.722356 -0.401028 -14.010469 -15.957544 -3.817967 5.425185 16.893438 7.226302 -9.927362 39.005979 0.880400 -5.981800 -16.731600 4.490990 -1.723872 2.608303 8.375976 9.408877 -8.316720 2.247674 -5.967761 16.097012 0.926617 -13.297919 29.604742 -0.211200 2.958900 -8.164500 0.770508 0.806322 18.148886 3.208169 1.412911 2.528494 1.804992 1.340034 -6.706179 3.842070 -1.006482 -4.333483 -6.006151 -2.589503 -9.893436 -4.052300 -1.539600 -3.341700 -1.671016 -6.151788 1.345283 -56.585186 1.785276 30.662884 40.531544 -45.580720 -22.708209 0.904475 -1.815674 8.842665 3.705072 -2.496214 -0.037200 -7.125000 0.000000 0.000000 -18.520400 28.884500 7.639300 2.494501 6.392726 2.410285 62.094911 -13.547330 23.892562 -26.251323 34.229620 -9.464706 0.864197 -0.205982 1.431898 -19.598181 -13.153606 4.758200 7.125000 0.000000 0.000000 6.256300 -43.613600 0.215000 
8.963062 25.172282 0.331733 177.415325 84.098596 -177.572692 -4.561712 -0.630508 0.639548 -0.366641 -14.187636 -16.275910 -3.838078 5.395636 16.880623 7.293945 -10.419281 38.745430 0.876800 -5.969700 -16.696500 4.483006 -1.580852 2.504663 8.032911 9.297803 -9.083280 2.206311 -6.074842 16.416270 0.747770 -12.815586 29.878877 -0.245100 3.185900 -8.796900 0.650818 0.880515 18.103769 3.154013 1.471850 2.530549 1.769638 1.371792 -6.634769 3.906892 -0.979722 -4.271801 -5.890312 -2.563621 -10.061752 -4.029600 -1.536300 -3.397400 -1.649953 -6.142400 1.339320 -56.908389 2.187900 30.843349 40.951992 -45.823975 -23.041495 0.896604 -1.808980 8.481752 4.137168 -2.523812 -0.045100 -7.125000 0.000000 0.000000 -18.178400 28.871200 7.490200 2.475229 6.371841 2.404910 62.203240 -13.428842 24.225120 -26.609894 34.538628 -9.672143 0.869824 -0.225669 0.999966 -20.213659 -13.096156 4.882300 7.125000 0.000000 0.000000 5.679000 -43.589400 0.198400 
